<?xml version="1.0" standalone="no"?>
<!DOCTYPE svg PUBLIC "-//W3C//DTD SVG 20010904//EN"
 "http://www.w3.org/TR/2001/REC-SVG-20010904/DTD/svg10.dtd">
<svg version="1.0" xmlns="http://www.w3.org/2000/svg"
 width="192.000000pt" height="192.000000pt" viewBox="0 0 192.000000 192.000000"
 preserveAspectRatio="xMidYMid meet">
<metadata>
Created by potrace 1.14, written by Peter Selinger 2001-2017
</metadata>
<g transform="translate(0.000000,192.000000) scale(0.100000,-0.100000)"
fill="#000000" stroke="none">
<path d="M793 1906 c-204 -39 -383 -136 -524 -283 -120 -126 -203 -277 -246
-449 -24 -95 -24 -333 0 -428 89 -356 349 -620 706 -718 110 -31 352 -31 462
0 357 98 617 362 706 718 24 95 24 333 0 428 -89 356 -353 625 -706 717 -99
27 -298 34 -398 15z m322 -483 c98 -36 185 -148 185 -237 0 -26 -1 -27 -56
-24 l-57 3 -12 50 c-23 88 -97 135 -215 135 -106 -1 -180 -55 -188 -139 -8
-91 49 -144 208 -191 166 -50 264 -110 298 -183 65 -138 15 -269 -127 -336
-50 -23 -68 -26 -166 -26 -127 0 -185 16 -262 74 -52 39 -103 124 -103 173 0
28 1 28 59 28 l58 0 6 -34 c8 -49 33 -83 85 -114 39 -22 60 -27 137 -30 79 -3
96 0 135 20 55 29 83 75 82 136 -1 83 -49 123 -215 178 -252 83 -325 154 -315
308 3 53 10 74 34 108 34 49 101 94 170 114 63 18 193 12 259 -13z"/>
</g>
</svg>
